<svg width="375" height="52" viewBox="0 0 375 52" fill="none" xmlns="http://www.w3.org/2000/svg">
<rect width="179.25" height="51.75" transform="translate(0.249878)" fill="white"/>
<path d="M39.2198 29.625H42.9378L39.1678 20.525H34.1498L30.3798 29.625H34.0978L34.7218 27.987H38.5958L39.2198 29.625ZM35.6058 25.647L36.6588 22.865L37.7118 25.647H35.6058ZM49.9651 20.525H43.2051V29.625H49.9651C52.1621 29.625 54.2291 28.169 54.2291 25.075C54.2291 21.981 52.1621 20.525 49.9651 20.525ZM48.9251 26.765H46.5851V23.385H48.9251C49.6531 23.385 50.8491 23.385 50.8491 25.075C50.8491 26.765 49.6531 26.765 48.9251 26.765ZM61.3782 20.525H54.6182V29.625H61.3782C63.5752 29.625 65.6422 28.169 65.6422 25.075C65.6422 21.981 63.5752 20.525 61.3782 20.525ZM60.3382 26.765H57.9982V23.385H60.3382C61.0662 23.385 62.2622 23.385 62.2622 25.075C62.2622 26.765 61.0662 26.765 60.3382 26.765ZM82.2863 20.525H71.1063V23.385H75.0063V29.625H78.3863V23.385H82.2863V20.525ZM88.1378 29.755C92.1288 29.755 93.8578 28.221 93.8578 25.062C93.8578 21.916 92.1288 20.395 88.1378 20.395C84.1338 20.395 82.4178 21.903 82.4178 25.062C82.4178 28.234 84.1338 29.755 88.1378 29.755ZM88.1378 26.895C86.1488 26.895 85.7978 26.037 85.7978 25.062C85.7978 24.1 86.1358 23.255 88.1378 23.255C90.1398 23.255 90.4778 24.113 90.4778 25.062C90.4778 26.024 90.1268 26.895 88.1378 26.895ZM99.328 25.062C99.328 28.234 101.044 29.755 105.048 29.755C108.701 29.755 110.586 28.468 110.729 25.582H107.271C107.141 26.453 106.478 26.895 105.048 26.895C103.059 26.895 102.708 26.037 102.708 25.062C102.708 24.1 103.046 23.255 105.048 23.255C106.478 23.255 107.141 23.684 107.271 24.542H110.729C110.586 21.669 108.688 20.395 105.048 20.395C101.044 20.395 99.328 21.903 99.328 25.062ZM118.667 29.625H122.385L118.615 20.525H113.597L109.827 29.625H113.545L114.169 27.987H118.043L118.667 29.625ZM115.053 25.647L116.106 22.865L117.159 25.647H115.053ZM133.286 24.009C133.286 21.981 131.869 20.525 129.802 20.525H122.652V29.625H126.032V27.493H128.021L129.282 29.625H133.286L131.674 27.012C132.675 26.427 133.286 25.335 133.286 24.009ZM126.032 23.385H129.152C129.49 23.385 129.906 23.385 129.906 24.009C129.906 24.633 129.49 24.633 129.152 24.633H126.032V23.385ZM144.722 20.525H133.542V23.385H137.442V29.625H140.822V23.385H144.722V20.525Z" fill="black"/>
<rect x="212.875" y="0.375" width="161.25" height="51" stroke="white" stroke-width="0.75"/>
<path d="M260.179 24.542C260.621 24.022 260.894 23.424 260.894 22.839C260.894 21.461 260.257 20.525 258.19 20.525H250.26V29.625H258.58C260.647 29.625 261.544 28.429 261.544 26.934C261.544 25.946 260.972 25.114 260.179 24.542ZM253.64 22.735H256.76C257.098 22.735 257.514 22.735 257.514 23.229C257.514 23.723 257.098 23.723 256.76 23.723H253.64V22.735ZM257.41 27.155H253.64V26.193H257.41C257.748 26.193 258.164 26.193 258.164 26.674C258.164 27.155 257.748 27.155 257.41 27.155ZM273.126 25.062V20.525H269.746V25.062C269.746 26.024 269.395 26.895 267.406 26.895C265.417 26.895 265.066 26.037 265.066 25.062V20.525H261.686V25.062C261.686 28.234 263.402 29.755 267.406 29.755C271.397 29.755 273.126 28.221 273.126 25.062ZM278.016 26.635V29.625H281.396V26.635L286.024 20.525H282.124L279.706 23.905L277.288 20.525H273.388L278.016 26.635ZM299.967 20.525V25.894L296.041 20.525H291.621V29.625H295.001V24.256L298.927 29.625H303.347V20.525H299.967ZM309.335 29.755C313.326 29.755 315.055 28.221 315.055 25.062C315.055 21.916 313.326 20.395 309.335 20.395C305.331 20.395 303.615 21.903 303.615 25.062C303.615 28.234 305.331 29.755 309.335 29.755ZM309.335 26.895C307.346 26.895 306.995 26.037 306.995 25.062C306.995 24.1 307.333 23.255 309.335 23.255C311.337 23.255 311.675 24.113 311.675 25.062C311.675 26.024 311.324 26.895 309.335 26.895ZM329.925 20.525L328.04 26.947L326.064 20.525H322.034L320.058 26.947L318.173 20.525H314.546L317.536 29.625H322.554L324.049 24.386L325.544 29.625H330.562L333.552 20.525H329.925Z" fill="white"/>
</svg>
