<svg width="419" height="72" viewBox="0 0 419 72" fill="none" xmlns="http://www.w3.org/2000/svg">
<path d="M16.668 54.814V35.05H10.188C10.188 39.874 5.256 39.874 1.548 39.874V45.346C4.176 45.346 7.524 45.346 10.26 42.934L10.224 54.814H1.548V60.25H25.308V54.814H16.668ZM51.5129 47.65C53.9249 46.498 55.4009 44.77 55.4009 42.142C55.4009 36.562 50.3249 34.69 41.4689 34.69C32.7209 34.69 26.8169 36.562 26.8169 44.59H33.2969C33.2969 40.774 35.6729 40.126 41.8289 40.126C47.4089 40.126 48.9209 40.774 48.9209 42.97C48.9209 45.49 46.7969 45.706 38.2289 45.706V49.594C46.9769 49.594 48.9209 49.81 48.9209 52.33C48.9209 54.742 46.9769 55.174 41.8289 55.174C36.2849 55.174 33.2969 54.742 33.2969 50.71H26.8169C26.8169 58.738 32.7209 60.61 41.4689 60.61C50.3249 60.61 55.4009 58.738 55.4009 53.158C55.4009 50.53 53.9249 48.802 51.5129 47.65ZM87.0668 50.674H82.0268V35.05H75.5468L57.7628 50.674V56.146H75.5468V60.25H82.0268V56.146H87.0668V50.674ZM64.7468 50.674L75.5468 41.53V50.674H64.7468ZM123.081 52.51C123.081 46.642 117.861 45.706 109.293 45.202V39.91C113.649 40.162 115.521 41.026 115.521 43.294H122.001C122.001 37.642 117.249 35.158 109.293 34.762V31.45H104.973V34.726C96.6209 34.942 91.6529 36.814 91.6529 41.998C91.6529 47.29 95.4689 49.126 104.973 49.774V55.39C99.0329 55.138 97.3769 53.914 97.3769 51.574H90.8969C90.8969 58.27 96.1169 60.286 104.973 60.574V63.85H109.293V60.574C117.573 60.394 123.081 58.774 123.081 52.51ZM98.1329 42.322C98.1329 40.558 99.4649 39.91 104.973 39.838V44.914C99.3569 44.554 98.1329 44.086 98.1329 42.322ZM109.293 55.462V49.99C115.449 50.386 116.601 50.854 116.601 52.726C116.601 54.562 114.873 55.318 109.293 55.462Z" fill="#E70000"/>
<rect x="344.75" y="0.499969" width="74.25" height="29.25" rx="9.75" fill="#EB0000"/>
<path d="M362.791 19.1172C362.002 19.1172 361.396 18.8828 360.975 18.414C360.553 17.9414 360.338 17.25 360.33 16.3398V15.5722C360.33 14.6269 360.535 13.8867 360.945 13.3515C361.359 12.8125 361.936 12.5429 362.674 12.5429C363.416 12.5429 363.971 12.7793 364.338 13.2519C364.705 13.7246 364.893 14.4609 364.9 15.4609V16.1406H361.361V16.2871C361.361 16.9668 361.488 17.4609 361.742 17.7695C362 18.0781 362.369 18.2324 362.85 18.2324C363.154 18.2324 363.422 18.1758 363.652 18.0625C363.887 17.9453 364.105 17.7617 364.309 17.5117L364.848 18.1679C364.398 18.8008 363.713 19.1172 362.791 19.1172ZM362.674 13.4336C362.244 13.4336 361.926 13.582 361.719 13.8789C361.512 14.1718 361.395 14.6289 361.367 15.25H363.863V15.1093C363.836 14.5078 363.727 14.0781 363.535 13.8203C363.348 13.5625 363.061 13.4336 362.674 13.4336ZM367.982 14.9746L369.066 12.6601H370.268L368.545 15.7949L370.309 19H369.119L368 16.6269L366.875 19H365.68L367.443 15.7949L365.727 12.6601H366.916L367.982 14.9746ZM373.508 18.2324C373.852 18.2324 374.127 18.1269 374.334 17.916C374.541 17.7011 374.654 17.3965 374.674 17.0019H375.652C375.629 17.6113 375.412 18.1172 375.002 18.5195C374.596 18.9179 374.098 19.1172 373.508 19.1172C372.723 19.1172 372.123 18.8711 371.709 18.3789C371.299 17.8828 371.094 17.1465 371.094 16.1699V15.4726C371.094 14.5156 371.299 13.789 371.709 13.2929C372.119 12.7929 372.717 12.5429 373.502 12.5429C374.15 12.5429 374.664 12.748 375.043 13.1582C375.426 13.5683 375.629 14.1289 375.652 14.8398H374.674C374.65 14.3711 374.537 14.0195 374.334 13.7851C374.135 13.5508 373.857 13.4336 373.502 13.4336C373.041 13.4336 372.699 13.5859 372.477 13.8906C372.254 14.1914 372.139 14.6875 372.131 15.3789V16.1875C372.131 16.9336 372.24 17.4609 372.459 17.7695C372.682 18.0781 373.031 18.2324 373.508 18.2324ZM377.967 19H376.93V9.99997H377.967V19ZM382.836 18.4433C382.492 18.8925 381.99 19.1172 381.33 19.1172C380.756 19.1172 380.322 18.9199 380.029 18.5254C379.736 18.1269 379.588 17.5488 379.584 16.791V12.6601H380.615V16.7148C380.615 17.7031 380.912 18.1972 381.506 18.1972C382.135 18.1972 382.568 17.916 382.807 17.3535V12.6601H383.844V19H382.859L382.836 18.4433ZM388.484 17.3769C388.484 17.1543 388.4 16.9629 388.232 16.8027C388.064 16.6425 387.74 16.455 387.26 16.2402C386.701 16.0097 386.307 15.8125 386.076 15.6484C385.85 15.4843 385.68 15.2988 385.566 15.0918C385.453 14.8808 385.396 14.6308 385.396 14.3418C385.396 13.8261 385.584 13.3984 385.959 13.0586C386.338 12.7148 386.82 12.5429 387.406 12.5429C388.023 12.5429 388.52 12.7226 388.895 13.082C389.27 13.4414 389.457 13.9023 389.457 14.4648H388.426C388.426 14.1797 388.33 13.9375 388.139 13.7383C387.947 13.5351 387.703 13.4336 387.406 13.4336C387.102 13.4336 386.861 13.5136 386.686 13.6738C386.514 13.83 386.428 14.041 386.428 14.3066C386.428 14.5175 386.49 14.6875 386.615 14.8164C386.744 14.9453 387.051 15.1152 387.535 15.3261C388.305 15.6269 388.828 15.9218 389.105 16.2109C389.383 16.4961 389.521 16.8593 389.521 17.3008C389.521 17.8515 389.332 18.2929 388.953 18.625C388.574 18.9531 388.066 19.1172 387.43 19.1172C386.77 19.1172 386.234 18.9277 385.824 18.5488C385.414 18.1699 385.209 17.6894 385.209 17.1074H386.252C386.264 17.459 386.371 17.7343 386.574 17.9336C386.777 18.1328 387.062 18.2324 387.43 18.2324C387.773 18.2324 388.035 18.1562 388.215 18.0039C388.395 17.8476 388.484 17.6386 388.484 17.3769ZM391.994 19H390.957V12.6601H391.994V19ZM392.076 10.9785C392.076 11.1543 392.027 11.3008 391.93 11.4179C391.832 11.5351 391.684 11.5937 391.484 11.5937C391.289 11.5937 391.143 11.5351 391.045 11.4179C390.947 11.3008 390.898 11.1543 390.898 10.9785C390.898 10.8027 390.947 10.6543 391.045 10.5332C391.143 10.4121 391.289 10.3515 391.484 10.3515C391.68 10.3515 391.826 10.414 391.924 10.539C392.025 10.6601 392.076 10.8066 392.076 10.9785ZM395.428 17.4238L396.629 12.6601H397.684L395.803 19H395.029L393.125 12.6601H394.18L395.428 17.4238ZM400.947 19.1172C400.158 19.1172 399.553 18.8828 399.131 18.414C398.709 17.9414 398.494 17.25 398.486 16.3398V15.5722C398.486 14.6269 398.691 13.8867 399.102 13.3515C399.516 12.8125 400.092 12.5429 400.83 12.5429C401.572 12.5429 402.127 12.7793 402.494 13.2519C402.861 13.7246 403.049 14.4609 403.057 15.4609V16.1406H399.518V16.2871C399.518 16.9668 399.645 17.4609 399.898 17.7695C400.156 18.0781 400.525 18.2324 401.006 18.2324C401.311 18.2324 401.578 18.1758 401.809 18.0625C402.043 17.9453 402.262 17.7617 402.465 17.5117L403.004 18.1679C402.555 18.8008 401.869 19.1172 400.947 19.1172ZM400.83 13.4336C400.4 13.4336 400.082 13.582 399.875 13.8789C399.668 14.1718 399.551 14.6289 399.523 15.25H402.02V15.1093C401.992 14.5078 401.883 14.0781 401.691 13.8203C401.504 13.5625 401.217 13.4336 400.83 13.4336Z" fill="white"/>
<path d="M146.48 33.1499H137.714V37.1099H141.8V39.4319C141.8 40.7639 141.314 41.9699 138.92 41.9699C136.526 41.9699 136.04 40.7819 136.04 39.4319H131.36C131.36 43.8239 133.736 45.9299 138.92 45.9299C144.086 45.9299 146.48 43.8059 146.48 39.4319V33.1499ZM156.288 45.9299C161.814 45.9299 164.208 43.8059 164.208 39.4319C164.208 35.0759 161.814 32.9699 156.288 32.9699C150.744 32.9699 148.368 35.0579 148.368 39.4319C148.368 43.8239 150.744 45.9299 156.288 45.9299ZM156.288 41.9699C153.534 41.9699 153.048 40.7819 153.048 39.4319C153.048 38.0999 153.516 36.9299 156.288 36.9299C159.06 36.9299 159.528 38.1179 159.528 39.4319C159.528 40.7639 159.042 41.9699 156.288 41.9699ZM180.829 37.9739C180.829 35.1659 178.867 33.1499 176.005 33.1499H166.105V45.7499H170.785V42.7979H173.539L175.285 45.7499H180.829L178.597 42.1319C179.983 41.3219 180.829 39.8099 180.829 37.9739ZM170.785 37.1099H175.105C175.573 37.1099 176.149 37.1099 176.149 37.9739C176.149 38.8379 175.573 38.8379 175.105 38.8379H170.785V37.1099ZM192.073 33.1499H182.713V45.7499H192.073C195.115 45.7499 197.977 43.7339 197.977 39.4499C197.977 35.1659 195.115 33.1499 192.073 33.1499ZM190.633 41.7899H187.393V37.1099H190.633C191.641 37.1099 193.297 37.1099 193.297 39.4499C193.297 41.7899 191.641 41.7899 190.633 41.7899ZM210.308 45.7499H215.456L210.236 33.1499H203.288L198.068 45.7499H203.216L204.08 43.4819H209.444L210.308 45.7499ZM205.304 40.2419L206.762 36.3899L208.22 40.2419H205.304ZM228.732 33.1499V40.5839L223.296 33.1499H217.176V45.7499H221.856V38.3159L227.292 45.7499H233.412V33.1499H228.732ZM146.894 53.1499H137.678V55.8679H143.654V59.4319C143.654 61.1779 143.168 63.2119 139.334 63.2119C135.5 63.2119 135.014 61.1959 135.014 59.4319H131.774C131.774 63.8239 134.15 65.9299 139.334 65.9299C144.5 65.9299 146.894 63.8059 146.894 59.4319V53.1499ZM168.058 59.4319V53.1499H164.818V59.4319C164.818 61.1779 164.332 63.2119 160.138 63.2119C155.944 63.2119 155.458 61.1959 155.458 59.4319V53.1499H152.218V59.4319C152.218 63.8239 154.594 65.9299 160.138 65.9299C165.664 65.9299 168.058 63.8059 168.058 59.4319ZM192.485 53.1499H188.111L182.837 62.0419L177.563 53.1499H173.189V65.7499H176.429V57.1099L181.667 65.7499H184.007L189.245 57.1099V65.7499H192.485V53.1499ZM207.612 53.1499H197.712V65.7499H200.952V62.3839H207.612C210.474 62.3839 212.436 60.5839 212.436 57.7759C212.436 54.9679 210.474 53.1499 207.612 53.1499ZM206.712 59.6659H200.952V55.8679H206.712C207.684 55.8679 209.196 55.8679 209.196 57.7759C209.196 59.6659 207.684 59.6659 206.712 59.6659ZM236.678 53.1499H232.304L227.03 62.0419L221.756 53.1499H217.382V65.7499H220.622V57.1099L225.86 65.7499H228.2L233.438 57.1099V65.7499H236.678V53.1499ZM255.038 65.7499H258.62L252.104 53.1499H247.73L241.232 65.7499H244.796L246.146 63.0679H253.688L255.038 65.7499ZM247.352 60.6559L249.926 55.5439L252.482 60.6559H247.352ZM276.171 53.1499V62.6179L267.567 53.1499H263.175V65.7499H266.415V56.2999L275.001 65.7499H279.411V53.1499H276.171ZM310.862 56.9299C310.862 53.7979 308.324 52.9699 303.986 52.9699C299.81 52.9699 296.858 53.9059 296.858 58.0999H300.098C300.098 56.1019 301.376 55.6879 304.166 55.6879C306.956 55.6879 307.622 56.1379 307.622 57.1819C307.622 60.0439 296.57 58.8739 296.57 64.1119V65.7499H310.682V63.0319H301.106C301.898 60.5299 310.862 61.8079 310.862 56.9299ZM322.918 65.9299C327.904 65.9299 330.298 63.6079 330.298 59.4319C330.298 55.2739 327.904 52.9699 322.918 52.9699C317.914 52.9699 315.538 55.2559 315.538 59.4319C315.538 63.6259 317.914 65.9299 322.918 65.9299ZM322.918 63.2119C320.074 63.2119 318.778 61.8079 318.778 59.4319C318.778 57.0739 320.074 55.6879 322.918 55.6879C325.762 55.6879 327.058 57.0919 327.058 59.4319C327.058 61.7899 325.762 63.2119 322.918 63.2119ZM349.131 56.9299C349.131 53.7979 346.593 52.9699 342.255 52.9699C338.079 52.9699 335.127 53.9059 335.127 58.0999H338.367C338.367 56.1019 339.645 55.6879 342.435 55.6879C345.225 55.6879 345.891 56.1379 345.891 57.1819C345.891 60.0439 334.839 58.8739 334.839 64.1119V65.7499H348.951V63.0319H339.375C340.167 60.5299 349.131 61.8079 349.131 56.9299ZM361.846 63.0319V53.1499H358.606C358.606 55.5619 356.14 55.5619 354.286 55.5619V58.2979C355.6 58.2979 357.274 58.2979 358.642 57.0919L358.624 63.0319H354.286V65.7499H366.166V63.0319H361.846ZM393.402 53.1499H383.502V65.7499H386.742V62.3839H393.402C396.264 62.3839 398.226 60.5839 398.226 57.7759C398.226 54.9679 396.264 53.1499 393.402 53.1499ZM392.502 59.6659H386.742V55.8679H392.502C393.474 55.8679 394.986 55.8679 394.986 57.7759C394.986 59.6659 393.474 59.6659 392.502 59.6659ZM416.493 55.8679V53.1499H403.173V65.7499H406.413V61.8079H415.413V59.0719H406.413V55.8679H416.493Z" fill="white"/>
</svg>
